<svg id="out" version="1.1" xmlns="http://www.w3.org/2000/svg" xmlns:xlink="http://www.w3.org/1999/xlink" viewBox="-500 -500 1000 1000"><desc>Created with Snap</desc><defs><mask id="maskSlagbh3d26"><rect x="-57.735026918962575" y="-60" width="115.47005383792515" height="120" style="" fill="#ffffff"></rect><rect x="-20" y="-92.37604307034012" width="40" height="184.75208614068023" transform="matrix(0.866,0.5,-0.5,0.866,-46.188,-80)"></rect></mask><mask id="maskSlagbh3d29"><polygon points="161.65807537309522,0,80.82903768654762,140,-80.82903768654757,140,-161.65807537309522,1.9797404456198263e-14,-80.82903768654768,-139.99999999999997,80.82903768654762,-140" fill="#ffffff" style=""></polygon></mask></defs><symbol viewBox="-500 -500 1000 1000" id="symbolSlagbh3d2b"><g mask="url('#maskSlagbh3d26')" transform="matrix(0.9,0,0,0.9,0,0)"><rect x="-20" y="-69.28203230275508" width="40" height="138.56406460551017" transform="matrix(0.866,0.5,-0.5,0.866,-34.641,60)"></rect><rect x="-20" y="-92.37604307034012" width="40" height="184.75208614068023" transform="matrix(0.866,-0.5,0.5,0.866,0,0)"></rect></g></symbol><g mask="url('#maskSlagbh3d29')"><use xlink:href="#symbolSlagbh3d2b" x="-500" y="-500" fill="#0000c6" transform="matrix(1,0,0,1,-46.188,80)" style=""></use><use xlink:href="#symbolSlagbh3d2b" x="-500" y="-500" fill="#006400" transform="matrix(0.5,-0.866,0.866,0.5,46.188,80)" style=""></use><use xlink:href="#symbolSlagbh3d2b" x="-500" y="-500" fill="#c6c600" transform="matrix(-0.5,-0.866,0.866,-0.5,92.376,0)" style=""></use><use xlink:href="#symbolSlagbh3d2b" x="-500" y="-500" fill="#c68000" transform="matrix(-1,0,0,-1,46.188,-80)" style=""></use><use xlink:href="#symbolSlagbh3d2b" x="-500" y="-500" fill="#c60000" transform="matrix(-0.5,0.866,-0.866,-0.5,-46.188,-80)" style=""></use><use xlink:href="#symbolSlagbh3d2b" x="-500" y="-500" fill="#c600c6" transform="matrix(0.5,0.866,-0.866,0.5,-92.376,0)" style=""></use></g><style>@import url('https://fonts.googleapis.com/css2?family=Nunito:wght@1000&amp;display=swap');</style><text x="0" y="-15" style="text-anchor: middle; font-family: Nunito; font-size: 20px; font-weight: bold;">divnix/</text><text x="0" y="15" style="text-anchor: middle; font-family: Nunito; font-size: 30px; font-weight: bold;">std</text></svg>